<svg xmlns="http://www.w3.org/2000/svg" xmlns:xlink="http://www.w3.org/1999/xlink" x="0" y="0" width="662" height="183" style="
        width:662px;
        height:183px;
        background: transparent;
        fill: none;
">
        
        
        <svg xmlns="http://www.w3.org/2000/svg" class="role-diagram-draw-area"><g class="shapes-region" style="stroke: black; fill: none;"><g class="composite-shape"><path class="real" d=" M240,60 C240,46.19 251.19,35 265,35 C278.81,35 290,46.19 290,60 C290,73.81 278.81,85 265,85 C251.19,85 240,73.81 240,60 Z" style="stroke-width: 1; stroke: rgb(0, 0, 0); fill: none; fill-opacity: 1;"/></g><g class="composite-shape"><path class="real" d=" M214,103 C214,89.19 225.19,78 239,78 C252.81,78 264,89.19 264,103 C264,116.81 252.81,128 239,128 C225.19,128 214,116.81 214,103 Z" style="stroke-width: 1; stroke: rgb(0, 0, 0); fill: none; fill-opacity: 1;"/></g><g class="composite-shape"><path class="real" d=" M265,103 C265,89.19 276.19,78 290,78 C303.81,78 315,89.19 315,103 C315,116.81 303.81,128 290,128 C276.19,128 265,116.81 265,103 Z" style="stroke-width: 1; stroke: rgb(0, 0, 0); fill: none; fill-opacity: 1;"/></g><g class="arrow-line"><path class="connection real" stroke-dasharray="" d="  M214.8,128.2 L314.8,128.2" style="stroke: rgb(0, 0, 0); stroke-width: 1; fill: none; fill-opacity: 1;"/></g><g class="composite-shape"><path class="real" d=" M359,60 C359,46.19 370.19,35 384,35 C397.81,35 409,46.19 409,60 C409,73.81 397.81,85 384,85 C370.19,85 359,73.81 359,60 Z" style="stroke-width: 1; stroke: rgb(0, 0, 0); fill: none; fill-opacity: 1;"/></g><g class="composite-shape"><path class="real" d=" M333,103 C333,89.19 344.19,78 358,78 C371.81,78 383,89.19 383,103 C383,116.81 371.81,128 358,128 C344.19,128 333,116.81 333,103 Z" style="stroke-width: 1; stroke: rgb(0, 0, 0); fill: none; fill-opacity: 1;"/></g><g class="composite-shape"><path class="real" d=" M384,103 C384,89.19 395.19,78 409,78 C422.81,78 434,89.19 434,103 C434,116.81 422.81,128 409,128 C395.19,128 384,116.81 384,103 Z" style="stroke-width: 1; stroke: rgb(0, 0, 0); fill: none; fill-opacity: 1;"/></g><g class="arrow-line"><path class="connection real" stroke-dasharray="" d="  M333.8,128.2 L433.8,128.2" style="stroke: rgb(0, 0, 0); stroke-width: 1; fill: none; fill-opacity: 1;"/></g><g class="arrow-line"><path class="connection real" stroke-dasharray="" d="  M435.8,57.2 L357.3,106.7" style="stroke: rgb(245, 166, 35); stroke-opacity: 1; stroke-width: 2; fill: none; fill-opacity: 1;"/></g><g class="arrow-line"><path class="connection real" stroke-dasharray="" d="  M265,60 L239,103" style="stroke: rgb(208, 2, 27); stroke-opacity: 1; stroke-width: 1; fill: none; fill-opacity: 1;"/></g><g class="arrow-line"><path class="connection real" stroke-dasharray="" d="  M290,103 L239,103" style="stroke: rgb(208, 2, 27); stroke-opacity: 1; stroke-width: 1; fill: none; fill-opacity: 1;"/></g><g class="arrow-line"><path class="connection real" stroke-dasharray="" d="  M290,103 L265,60" style="stroke: rgb(208, 2, 27); stroke-opacity: 1; stroke-width: 1; fill: none; fill-opacity: 1;"/></g><g class="arrow-line"><path class="connection real" stroke-dasharray="" d="  M408.4,103.6 L384,60" style="stroke: rgb(208, 2, 27); stroke-opacity: 1; stroke-width: 1; fill: none; fill-opacity: 1;"/></g><g class="arrow-line"><path class="connection real" stroke-dasharray="" d="  M437.8,81.7 L373.3,81.7" style="stroke: rgb(208, 2, 27); stroke-opacity: 1; stroke-width: 1; fill: none; fill-opacity: 1;"/></g><g/></g><g/><g/><g/></svg>
        <svg xmlns="http://www.w3.org/2000/svg" xmlns:xlink="http://www.w3.org/1999/xlink" width="660" height="181" style="width:660px;height:181px;font-family:Asana-Math, Asana;background:transparent;"><g><g><g><g transform="matrix(1,0,0,1,267.2750244140625,99.80000305175781)"><path transform="matrix(0.012,0,0,-0.012,0,0)" d="M42 323C42 35 168 -22 252 -22C307 -22 348 -3 388 40C438 93 457 146 457 224C457 290 445 344 404 401C377 439 346 462 295 462C232 462 168 433 126 380C131 479 184 619 309 619C350 619 375 613 416 598L416 658C386 669 352 678 309 678C155 678 42 521 42 323ZM127 220L130 220C129 229 128 238 128 247C128 329 179 401 256 401C279 401 317 396 347 349C370 313 375 279 375 218C375 196 375 173 370 151C361 108 327 40 251 40C158 40 135 146 127 220ZM541 310C541 26 666 -22 749 -22C774 -22 794 -17 812 -11C952 41 958 227 958 324L958 345C958 624 832 678 749 678C724 678 704 673 686 666C545 613 541 422 541 327ZM619 310L619 370C619 583 697 616 749 616C801 616 880 584 880 370L880 311C880 77 802 39 750 39C698 39 619 76 619 310Z" stroke="rgb(0,0,0)" stroke-opacity="1" stroke-width="8" fill="rgb(0,0,0)" fill-opacity="1"></path></g></g><g><text x="279.2750244140625" y="88.59999084472656" style="white-space:pre;stroke:none;fill:rgb(0,0,0);fill-opacity:1;font-size:12px;font-family:Arial, Helvetica, sans-serif;font-weight:400;font-style:normal;dominant-baseline:text-before-edge;text-decoration:none solid rgb(0, 0, 0);">°</text></g></g></g><g><g><g><g transform="matrix(1,0,0,1,419.2750244140625,77.80000305175781)"><path transform="matrix(0.012,0,0,-0.012,0,0)" d="M41 81C118 -17 214 -22 245 -22C370 -22 457 76 457 180C457 250 414 321 318 354C413 408 429 482 429 525C429 608 351 678 248 678C209 678 118 668 55 569L91 514C96 524 101 534 107 543C138 589 190 618 246 618C306 618 347 581 347 525C347 464 303 403 238 391C231 390 224 390 166 385L166 323L239 323C328 323 367 253 367 182C367 101 318 40 244 40C215 40 122 47 52 142ZM541 310C541 26 666 -22 749 -22C774 -22 794 -17 812 -11C952 41 958 227 958 324L958 345C958 624 832 678 749 678C724 678 704 673 686 666C545 613 541 422 541 327ZM619 310L619 370C619 583 697 616 749 616C801 616 880 584 880 370L880 311C880 77 802 39 750 39C698 39 619 76 619 310Z" stroke="rgb(0,0,0)" stroke-opacity="1" stroke-width="8" fill="rgb(0,0,0)" fill-opacity="1"></path></g></g><g><text x="431.2750244140625" y="66.60000610351562" style="white-space:pre;stroke:none;fill:rgb(0,0,0);fill-opacity:1;font-size:12px;font-family:Arial, Helvetica, sans-serif;font-weight:400;font-style:normal;dominant-baseline:text-before-edge;text-decoration:none solid rgb(0, 0, 0);">°</text></g></g></g></svg>
</svg>
